<?xml version="1.0" encoding="UTF-8"?>
<svg version="1.1" xmlns="http://www.w3.org/2000/svg" width="32" height="32">
<path d="M0 0 C4.22025697 2.32544772 5.86348705 5.5035373 8.0625 9.6875 C11.03629403 6.91879521 12.99485124 4.16490928 15.0625 0.6875 C17.85113007 -0.70681504 19.98328868 -0.56910094 23.0625 -0.3125 C25.30868422 3.05677633 25.30762883 4.67796366 24.69482422 8.61035156 C23.59608541 12.21964492 21.27368031 14.47103388 18.625 17.0625 C18.12162109 17.58199219 17.61824219 18.10148437 17.09960938 18.63671875 C15.77028947 20.00311133 14.41768376 21.34675503 13.0625 22.6875 C12.4025 23.3475 11.7425 24.0075 11.0625 24.6875 C8.23046875 25.13671875 8.23046875 25.13671875 5.0625 24.6875 C2.61328125 22.45703125 2.61328125 22.45703125 0.375 19.5 C-0.37136719 18.53707031 -1.11773438 17.57414062 -1.88671875 16.58203125 C-7.78503042 8.25698563 -7.78503042 8.25698563 -6.9375 2.6875 C-4.64998235 -0.12790634 -3.60683653 -0.38370601 0 0 Z " fill="#BC7777" transform="translate(6.9375,4.3125)"/>
</svg>