<?xml version="1.0" encoding="UTF-8"?>
<svg version="1.1" xmlns="http://www.w3.org/2000/svg" width="256" height="256">
<path d="M0 0 C2.51456214 1.80532666 3.84388415 3.112291 5.4375 5.75 C5.73046875 8.546875 5.73046875 8.546875 5.625 11.5 C5.58439453 12.97726563 5.58439453 12.97726563 5.54296875 14.484375 C5.50816406 15.23203125 5.47335938 15.9796875 5.4375 16.75 C4.1175 16.42 2.7975 16.09 1.4375 15.75 C1.499375 14.6775 1.56125 13.605 1.625 12.5 C1.64601449 8.90704798 1.64601449 8.90704798 0.5 6.375 C-2.9626277 3.64686909 -6.23146518 3.41043662 -10.5625 3.75 C-28.64039715 8.16733927 -43.15147261 25.18005182 -54.21240234 39.0703125 C-56.98032691 42.51395103 -59.80990746 45.90741578 -62.625 49.3125 C-66.36775796 53.84841211 -70.09641664 58.39167367 -73.75 63 C-86.77287492 79.34786426 -100.63601933 95.16564884 -116.5625 108.75 C-117.47257812 109.56082031 -118.38265625 110.37164062 -119.3203125 111.20703125 C-135.60805149 125.59383483 -153.74935601 135.12222933 -173.32006836 144.22314453 C-177.10707704 146.00644039 -180.84925166 147.86783758 -184.58032227 149.76489258 C-192.50955403 153.70558111 -201.87664721 154.88601052 -210.48828125 152.61328125 C-215.61032079 150.48150962 -219.42403541 146.86022758 -221.5625 141.75 C-222.06296695 137.82967553 -221.90448493 136.26297739 -219.6875 132.9375 C-217.2660277 130.44480793 -216.36640831 129.84478919 -212.9453125 129.44140625 C-208.47380663 129.84931498 -205.3409521 131.56920735 -201.4375 133.6875 C-200.04094652 134.42933896 -198.6425618 135.16774286 -197.2421875 135.90234375 C-196.63101074 136.23226318 -196.01983398 136.56218262 -195.39013672 136.90209961 C-191.49881596 138.70741046 -187.88310928 138.9106519 -183.625 138.9375 C-182.60535156 138.95167969 -181.58570313 138.96585938 -180.53515625 138.98046875 C-174.67986475 138.52651054 -171.62290606 136.17451525 -167.4375 132.1875 C-162.87556491 127.85435497 -162.87556491 127.85435497 -159.5625 126.75 C-158.87213387 125.42878207 -158.21058564 124.09246312 -157.5625 122.75 C-156.09251624 120.97471192 -154.58778178 119.22800911 -153.0625 117.5 C-138.00506502 99.86727766 -125.28865643 76.39182781 -125.5625 52.75 C-126.40162646 43.64870534 -129.46184161 35.72100819 -136.5625 29.75 C-144.44727667 24.13434125 -151.12675452 22.37854555 -160.75 22.4375 C-162.15076782 22.44487183 -162.15076782 22.44487183 -163.57983398 22.45239258 C-175.36523103 22.57415345 -175.36523103 22.57415345 -185.1875 28.3125 C-186.01178851 29.77373872 -186.8122107 31.24942141 -187.5625 32.75 C-186.923125 32.95625 -186.28375 33.1625 -185.625 33.375 C-183.5625 34.75 -183.5625 34.75 -182.6875 37.5625 C-182.55201555 41.01735351 -183.28538915 42.59478496 -184.5625 45.75 C-184.7386425 48.44246392 -184.65411624 51.04732085 -184.5625 53.75 C-186.8125 54.0625 -186.8125 54.0625 -189.5625 53.75 C-192.89822987 50.50957669 -194.56739267 47.27321511 -195.5625 42.75 C-195.2539557 36.68196203 -195.2539557 36.68196203 -193.125 33.8125 C-191.5625 32.75 -191.5625 32.75 -189.5625 32.75 C-190.0575 30.77 -190.0575 30.77 -190.5625 28.75 C-205.65961123 37.88042205 -217.2481199 48.77287548 -223.5625 65.75 C-224.3635652 70.18565029 -224.35854607 73.39008797 -222.0625 77.3125 C-221.5675 77.786875 -221.0725 78.26125 -220.5625 78.75 C-219.53125 78.523125 -218.5 78.29625 -217.4375 78.0625 C-212.974091 77.70254766 -211.28049643 78.35395786 -207.5625 80.75 C-206.22916667 82.08333333 -204.89583333 83.41666667 -203.5625 84.75 C-200.53275652 85.94353531 -199.75882902 85.81544301 -196.5625 84.75 C-196.2325 85.74 -195.9025 86.73 -195.5625 87.75 C-197.58531801 91.20564743 -199.08121292 92.55563406 -202.8125 94.0625 C-209.44062481 95.27765621 -214.66207232 95.59213895 -220.5625 91.75 C-223.92914683 88.49944444 -223.97755773 85.26241179 -224.5625 80.75 C-225.2225 80.09 -225.8825 79.43 -226.5625 78.75 C-227.02405884 87.74184993 -226.58744905 96.18562024 -221 103.625 C-215.35548796 109.46272272 -208.53539394 110.9814105 -200.625 111.25 C-191.35631099 110.95751689 -183.05735312 108.56959578 -176.5625 101.75 C-174.69326797 98.60011127 -174.69326797 98.60011127 -173.5625 95.75 C-174.635 95.6675 -175.7075 95.585 -176.8125 95.5 C-181.00485949 94.6615281 -181.97751466 94.03348137 -184.5625 90.75 C-185.3203125 87.83984375 -185.3203125 87.83984375 -185.6875 84.6875 C-186.26349123 79.9319428 -186.26349123 79.9319428 -188.5625 75.75 C-189.5525 75.42 -190.5425 75.09 -191.5625 74.75 C-191.0675 73.265 -191.0675 73.265 -190.5625 71.75 C-187.39162985 70.16456493 -185.08259516 70.40934563 -181.5625 70.75 C-176.06735399 73.1240668 -172.26806125 76.3388775 -169.5625 81.75 C-168.3534155 86.6727012 -168.55459391 89.20579148 -170.5625 93.75 C-171.32489973 97.06567133 -171.95166458 100.40340168 -172.5625 103.75 C-171.3559375 104.059375 -171.3559375 104.059375 -170.125 104.375 C-168.8565625 105.055625 -168.8565625 105.055625 -167.5625 105.75 C-166.75 108.875 -166.75 108.875 -166.5625 111.75 C-167.8825 112.08 -169.2025 112.41 -170.5625 112.75 C-170.8925 112.09 -171.2225 111.43 -171.5625 110.75 C-177.4660508 110.32065085 -181.19566944 111.12347891 -186.484375 113.77734375 C-194.25424883 117.41399522 -205.4071161 116.81974216 -213.6875 115.1015625 C-219.653669 112.92018196 -224.09460279 109.19293689 -228.5625 104.75 C-228.913125 105.554375 -229.26375 106.35875 -229.625 107.1875 C-231.5625 109.75 -231.5625 109.75 -235.0625 110.75 C-238.5625 110.75 -238.5625 110.75 -240.5 109.5 C-241.5625 107.75 -241.5625 107.75 -241.5625 104.75 C-240.634375 104.70875 -239.70625 104.6675 -238.75 104.625 C-235.35218569 104.05070751 -235.35218569 104.05070751 -233.625 101.0625 C-232.41053757 97.27623479 -232.8744231 95.61699219 -233.5625 91.75 C-234.64399146 74.44613669 -231.44512924 59.52682482 -220.14453125 45.81640625 C-217.68348576 43.05800073 -215.17641062 40.36391062 -212.5625 37.75 C-216.64199933 36.14733955 -220.44002735 34.73381876 -224.75 33.9375 C-229.64878596 32.41164863 -230.77629519 30.97152244 -233.5625 26.75 C-235.42341647 21.01316197 -235.26487044 14.85711133 -233.375 9.1875 C-231.5625 6.75 -231.5625 6.75 -228.875 5.875 C-228.111875 5.83375 -227.34875 5.7925 -226.5625 5.75 C-226.5625 6.760625 -226.5625 7.77125 -226.5625 8.8125 C-225.95294616 13.49844518 -222.93680455 15.49005163 -219.375 18.26953125 C-217.5625 19.75 -217.5625 19.75 -216.5625 21.75 C-216.46750497 23.24756871 -216.43262802 24.74942932 -216.4375 26.25 C-216.43363281 27.44109375 -216.43363281 27.44109375 -216.4296875 28.65625 C-216.5625 30.75 -216.5625 30.75 -217.5625 32.75 C-209.0218799 33.19950632 -204.06240005 30.66793358 -196.875 26.3125 C-189.97303291 22.21472834 -182.69933871 18.75 -174.5625 18.75 C-174.5625 18.09 -174.5625 17.43 -174.5625 16.75 C-175.2225 16.75 -175.8825 16.75 -176.5625 16.75 C-177.6875 13.4375 -177.6875 13.4375 -178.5625 9.75 C-177.9025 8.76 -177.2425 7.77 -176.5625 6.75 C-175.2425 7.08 -173.9225 7.41 -172.5625 7.75 C-172.3459375 9.173125 -172.3459375 9.173125 -172.125 10.625 C-171.73314601 13.6434494 -171.73314601 13.6434494 -170.5625 15.75 C-169.50933594 15.72679688 -168.45617187 15.70359375 -167.37109375 15.6796875 C-150.09819557 15.41146853 -133.34398793 16.27544667 -119.46875 27.86328125 C-112.95102593 34.31422536 -110.35074903 42.07182022 -110.2331543 51.15576172 C-110.24149292 52.28522217 -110.24149292 52.28522217 -110.25 53.4375 C-110.25737183 54.62496826 -110.25737183 54.62496826 -110.26489258 55.83642578 C-110.39650886 62.4766359 -111.38423878 68.4542938 -113.5625 74.75 C-114.03816406 76.17119141 -114.03816406 76.17119141 -114.5234375 77.62109375 C-120.71655924 94.15804649 -132.94208843 107.97140472 -144.84545898 120.69213867 C-147.25569534 123.27349519 -149.50961844 125.8746063 -151.5625 128.75 C-141.08748147 121.56175375 -131.10257217 114.13937622 -121.5625 105.75 C-120.83933594 105.13769531 -120.11617188 104.52539062 -119.37109375 103.89453125 C-108.74480774 94.85682133 -99.88622536 84.88422894 -91.5625 73.75 C-91.02222168 73.02748047 -90.48194336 72.30496094 -89.92529297 71.56054688 C-84.61381274 64.43409609 -79.34543217 57.27703004 -74.203125 50.02734375 C-67.43721341 40.5017451 -60.44048683 31.38634029 -52.5625 22.75 C-51.73234375 21.83605469 -50.9021875 20.92210938 -50.046875 19.98046875 C-37.71602219 7.0330733 -18.76220549 -6.58323 0 0 Z M-210.5625 140.75 C-210.8925 141.74 -211.2225 142.73 -211.5625 143.75 C-210.08769226 146.56554205 -208.78905436 148.28839352 -205.74609375 149.43359375 C-198.70121877 150.6920705 -192.06217613 148.38903636 -185.5625 145.75 C-184.9025 145.09 -184.2425 144.43 -183.5625 143.75 C-192.63268429 141.98226107 -201.27667006 140.30781762 -210.5625 140.75 Z " fill="#0000FE" transform="translate(245.5625,41.25)"/>
</svg>